<svg xmlns="http://www.w3.org/2000/svg" viewBox="0 0 64 64" role="img" aria-label="LaunchBridge favicon">
  <defs>
    <linearGradient id="tile" x1="8" x2="56" y1="6" y2="58" gradientUnits="userSpaceOnUse">
      <stop offset="0" stop-color="#15222c"/>
      <stop offset="0.55" stop-color="#0b1219"/>
      <stop offset="1" stop-color="#102620"/>
    </linearGradient>
    <linearGradient id="mark" x1="14" x2="50" y1="13" y2="51" gradientUnits="userSpaceOnUse">
      <stop offset="0" stop-color="#d7fff8"/>
      <stop offset="0.48" stop-color="#57d6ff"/>
      <stop offset="1" stop-color="#4cc9a7"/>
    </linearGradient>
    <filter id="soft-glow" x="-30%" y="-30%" width="160%" height="160%" color-interpolation-filters="sRGB">
      <feGaussianBlur stdDeviation="1.2" result="blur"/>
      <feMerge>
        <feMergeNode in="blur"/>
        <feMergeNode in="SourceGraphic"/>
      </feMerge>
    </filter>
  </defs>

  <rect width="64" height="64" rx="16" fill="url(#tile)"/>
  <path fill="#57d6ff" fill-opacity="0.1" d="M9 47c11.5-7.8 21.2-8.5 31.7-2.2 5.1 3.1 9.5 3.5 14.3 1.2v9.5H9V47Z"/>

  <circle cx="32" cy="31" r="18.5" fill="none" stroke="url(#mark)" stroke-width="4" filter="url(#soft-glow)"/>
  <path fill="none" stroke="#d7fff8" stroke-linecap="round" stroke-width="3.2" d="M18.5 31h27"/>
  <path fill="none" stroke="#d7fff8" stroke-linecap="round" stroke-width="3.2" d="M32 13.5v35"/>
  <path fill="none" stroke="#9ff7ea" stroke-linecap="round" stroke-width="2.6" d="M25.2 15.4c-4.6 8-4.6 23.2 0 31.2"/>
  <path fill="none" stroke="#9ff7ea" stroke-linecap="round" stroke-width="2.6" d="M38.8 15.4c4.6 8 4.6 23.2 0 31.2"/>

  <path fill="none" stroke="#4cc9a7" stroke-linecap="round" stroke-width="4.3" d="M14.5 43.5c5.1-6.2 10.9-9.2 17.5-9.2s12.4 3 17.5 9.2"/>
  <path fill="none" stroke="#d7fff8" stroke-linecap="round" stroke-width="2.2" d="M20.5 43.4h23"/>
  <circle cx="18.3" cy="43.5" r="2.4" fill="#d7fff8"/>
  <circle cx="45.7" cy="43.5" r="2.4" fill="#d7fff8"/>
</svg>
